<?xml version="1.0" encoding="UTF-8" standalone="no"?>
<!-- Created with Inkscape (http://www.inkscape.org/) -->

<svg
   version="1.1"
   id="svg1"
   width="192"
   height="192"
   viewBox="0 0 192 192"
   xmlns="http://www.w3.org/2000/svg"
   xmlns:svg="http://www.w3.org/2000/svg">
  <defs
     id="defs1" />
  <g
     id="g1">
    <path
       style="fill:#000000"
       d="m 66.610906,95.666667 20.837164,-71 8.83423,-0.391783 8.83423,-0.391782 0.7267,2.391782 0.7267,2.391783 20.04837,68.392944 20.04837,68.392949 0,0.60705 v 0.60706 h -8.4539 -8.4539 L 124.80369,148.33333 119.84852,130 l -0.68078,-2.33333 -0.68077,-2.33334 H 96.1212 73.755434 l -1.448557,5 -1.448556,5 L 66.596199,151 62.334077,166.66667 H 54.05391 45.773743 Z M 110.552,95 106.6502,80.666667 101.78139,62.277042 96.912583,43.887417 96.022125,44.943709 95.131666,46 l -8.2325,30.138904 -8.232499,30.138906 v 1.52776 1.52776 h 17.893561 17.893562 z"
       id="path1" />
  </g>
</svg>
